{"title":"Spider-Man Homecoming 2017 Movies HD Cam XviD Clean Audio New +S","magnet":"magnet:?xt=urn:btih:acb849c248930b9f45cd6bfc2de8d9d4be304b24&dn=Spider-Man+Homecoming+2017+Movies+HD+Cam+XviD+Clean+Audio+New+%2BS&tr=udp%3A%2F%2Ftracker.leechers-paradise.org%3A6969&tr=udp%3A%2F%2Fzer0day.ch%3A1337&tr=udp%3A%2F%2Fopen.demonii.com%3A1337&tr=udp%3A%2F%2Ftracker.coppersurfer.tk%3A6969&tr=udp%3A%2F%2Fexodus.desync.com%3A6969","uploader":"basicssom","categoryP":"video","categoryS":"movies","size":"738982523","seeders":"7","leechers":"346","description":"----------------------------------------------------------------\r\nSpider-Man Homecoming 2017 Movies HD Cam XviD Clean Audio AAC New Source with Sample &#x263B;rDX&#x263B;\r\n\r\nSCREEN SHOTS &amp; POSTER:\r\n   <a href=\"\nhttp://postimage.co.nr/2017/7/gadget/index.html\" rel=\"nofollow\" target=\"_NEW\">\nhttp://postimage.co.nr/2017/7/gadget/index.html</a>  <a href=\"\nhttp://postimage.co.nr/2017/7/gadget/1.html\" rel=\"nofollow\" target=\"_NEW\">\nhttp://postimage.co.nr/2017/7/gadget/1.html</a>   <a href=\"\nhttp://postimage.co.nr/2017/7/gadget/2.html\" rel=\"nofollow\" target=\"_NEW\">\nhttp://postimage.co.nr/2017/7/gadget/2.html</a>   <a href=\"\nhttp://postimage.co.nr/2017/7/gadget/3.html\" rel=\"nofollow\" target=\"_NEW\">\nhttp://postimage.co.nr/2017/7/gadget/3.html</a>   <a href=\"\nhttp://postimage.co.nr/2017/7/gadget/4.html\" rel=\"nofollow\" target=\"_NEW\">\nhttp://postimage.co.nr/2017/7/gadget/4.html</a>   <a href=\"\nhttp://postimage.co.nr/2017/7/gadget/5.html\" rel=\"nofollow\" target=\"_NEW\">\nhttp://postimage.co.nr/2017/7/gadget/5.html</a>   <a href=\"\nhttp://postimage.co.nr/2017/7/gadget/6.html\" rel=\"nofollow\" target=\"_NEW\">\nhttp://postimage.co.nr/2017/7/gadget/6.html</a>   <a href=\"\nhttp://postimage.co.nr/2017/7/gadget/7.html\" rel=\"nofollow\" target=\"_NEW\">\nhttp://postimage.co.nr/2017/7/gadget/7.html</a>   <a href=\"\nhttp://postimage.co.nr/2017/7/gadget/8.html\" rel=\"nofollow\" target=\"_NEW\">\nhttp://postimage.co.nr/2017/7/gadget/8.html</a>   <a href=\"\nhttp://postimage.co.nr/2017/7/gadget/9.html\" rel=\"nofollow\" target=\"_NEW\">\nhttp://postimage.co.nr/2017/7/gadget/9.html</a>   <a href=\"\nhttp://postimage.co.nr/2017/7/gadget/10.html\" rel=\"nofollow\" target=\"_NEW\">\nhttp://postimage.co.nr/2017/7/gadget/10.html</a>\r\n\r\nFile size                                : 697 MiB\r\nDuration                                 : 2 h 8 min\r\nOverall bit rate mode                    : Constant\r\nOverall bit rate                         : 760 kb/s\r\nMovie name                               : Spider-Man Homecoming 2017 Movies HD Cam XviD Clean Audio AAC New Source &#x263B;rDX&#x263B;\r\n\r\nVideo\r\nID                                       : 2\r\nFormat                                   : AVC\r\nFormat/Info                              : Advanced Video Codec\r\nFormat profile                           : <a class=\"__cf_email__\" href=\"/cdn-cgi/l/email-protection\" data-cfemail=\"87cae6eee9c7cbb5a9b6\">[email&#xA0;protected]</a><script data-cfhash=\"f9e31\" type=\"text/javascript\">/* <![CDATA[ */!function(t,e,r,n,c,a,p){try{t=document.currentScript||function(){for(t=document.getElementsByTagName('script'),e=t.length;e--;)if(t[e].getAttribute('data-cfhash'))return t[e]}();if(t&&(c=t.previousSibling)){p=t.parentNode;if(a=c.getAttribute('data-cfemail')){for(e='',r='0x'+a.substr(0,2)|0,n=2;a.length-n;n+=2)e+='%'+('0'+('0x'+a.substr(n,2)^r).toString(16)).slice(-2);p.replaceChild(document.createTextNode(decodeURIComponent(e)),c)}p.removeChild(t)}}catch(u){}}()/* ]]> */</script>\r\nFormat settings, CABAC                   : Yes\r\nFormat settings, ReFrames                : 2 frames\r\nFormat settings, GOP                     : M=1, N=12\r\nCodec ID                                 : V_MPEG4/ISO/AVC\r\nDuration                                 : 2 h 8 min\r\nBit rate mode                            : Constant\r\nBit rate                                 : 665 kb/s\r\nWidth                                    : 608 pixels\r\nHeight                                   : 256 pixels\r\nDisplay aspect ratio                     : 2.40:1\r\nFrame rate mode                          : Constant\r\nFrame rate                               : 25.000 FPS\r\nColor space                              : YUV\r\nChroma subsampling                       : 4:2:0\r\nBit depth                                : 8 bits\r\nScan type                                : Progressive\r\nBits/(Pixel*Frame)                       : 0.171\r\nStream size                              : 595 MiB (85%)\r\nTitle                                    : &#x263B;rDX&#x263B;\r\nLanguage                                 : English\r\nDefault                                  : Yes\r\nForced                                   : No\r\n\r\nAudio\r\nID                                       : 1\r\nFormat                                   : MPEG Audio\r\nFormat version                           : Version 2\r\nFormat profile                           : Layer 3\r\nMode                                     : Joint stereo\r\nMode extension                           : MS Stereo\r\nCodec ID                                 : A_MPEG/L3\r\nCodec ID/Hint                            : MP3\r\nDuration                                 : 2 h 8 min\r\nBit rate mode                            : Constant\r\nBit rate                                 : 96.0 kb/s\r\nChannel(s)                               : 2 channels\r\nSampling rate                            : 22.05 kHz\r\nCompression mode                         : Lossy\r\nDelay relative to video                  : 3 ms\r\nStream size                              : 88.0 MiB (13%)\r\nTitle                                    : &#x263B;rDX&#x263B;\r\nWriting library                          : LAME\r\nLanguage                                 : English\r\nDefault                                  : Yes\r\nForced                                   : No","last_updated":"2017-07-08T12:01:35.146Z","parsed":{"xt":"urn:btih:acb849c248930b9f45cd6bfc2de8d9d4be304b24","dn":"Spider-Man Homecoming 2017 Movies HD Cam XviD Clean Audio New  S","tr":["udp://exodus.desync.com:6969","udp://open.demonii.com:1337","udp://tracker.coppersurfer.tk:6969","udp://tracker.leechers-paradise.org:6969","udp://zer0day.ch:1337"],"infoHash":"acb849c248930b9f45cd6bfc2de8d9d4be304b24","infoHashBuffer":{"type":"Buffer","data":[172,184,73,194,72,147,11,159,69,205,107,252,45,232,217,212,190,48,75,36]},"name":"Spider-Man Homecoming 2017 Movies HD Cam XviD Clean Audio New  S","announce":["udp://exodus.desync.com:6969","udp://open.demonii.com:1337","udp://tracker.coppersurfer.tk:6969","udp://tracker.leechers-paradise.org:6969","udp://zer0day.ch:1337"],"urlList":[]}}